<svg width="24" height="24" viewBox="0 0 24 24" fill="none" xmlns="http://www.w3.org/2000/svg">
<g clip-path="url(#clip0_315_21)">
<path d="M6.315 6.176C6.065 5.538 6.075 4.809 6.186 4.142C6.95019 4.37097 7.6679 4.73321 8.306 5.212C8.586 5.426 8.953 5.495 9.295 5.392C10.1726 5.12944 11.084 4.99736 12 5C12.961 5 13.874 5.14 14.703 5.391C15.045 5.495 15.412 5.425 15.691 5.211C16.3288 4.73232 17.0462 4.37008 17.81 4.141C17.921 4.808 17.93 5.537 17.682 6.174C17.532 6.558 17.607 7 17.89 7.314C18.614 8.117 19 9.04 19 10C19 12.114 17.03 14.187 13.866 14.818C13.074 14.976 12.765 15.973 13.371 16.544C13.76 16.91 14 17.426 14 18V21C14 21.2652 14.1054 21.5196 14.2929 21.7071C14.4804 21.8946 14.7348 22 15 22C15.2652 22 15.5196 21.8946 15.7071 21.7071C15.8946 21.5196 16 21.2652 16 21V18C16 17.43 15.88 16.888 15.666 16.397C18.683 15.35 21 12.993 21 10C21 8.653 20.516 7.415 19.713 6.378C19.923 5.558 19.904 4.732 19.824 4.098C19.753 3.53 19.654 2.786 19.254 2.342C18.659 1.683 17.674 2.071 16.974 2.31C16.2231 2.56409 15.5087 2.91541 14.849 3.355C13.918 3.11741 12.9608 2.99814 12 3C11.006 3 10.047 3.125 9.149 3.356C8.48932 2.9164 7.77491 2.56508 7.024 2.311C6.324 2.071 5.338 1.683 4.743 2.342C4.335 2.794 4.25 3.479 4.177 4.061L4.172 4.099C4.092 4.734 4.074 5.561 4.284 6.382C3.484 7.418 3 8.654 3 10C3 12.992 5.317 15.35 8.334 16.397C8.11563 16.8963 8.00195 17.435 8 17.98L7.832 18.014C7.115 18.113 6.656 18.024 6.344 17.892C5.584 17.57 5.192 16.759 4.714 16.139C4.416 15.754 3.982 15.273 3.316 15.051C3.19138 15.0095 3.0598 14.993 2.92878 15.0023C2.79776 15.0117 2.66987 15.0467 2.5524 15.1055C2.31517 15.2242 2.13481 15.4323 2.051 15.684C1.96719 15.9357 1.9868 16.2104 2.10551 16.4476C2.22422 16.6848 2.43231 16.8652 2.684 16.949C3.242 17.135 3.628 18.091 3.982 18.515C4.355 18.963 4.851 19.431 5.562 19.733C6.244 20.023 7.045 20.126 8 20.009V21C8 21.2652 8.10536 21.5196 8.29289 21.7071C8.48043 21.8946 8.73478 22 9 22C9.26522 22 9.51957 21.8946 9.70711 21.7071C9.89464 21.5196 10 21.2652 10 21V18C10 17.426 10.24 16.91 10.629 16.544C11.236 15.972 10.926 14.976 10.134 14.818C6.969 14.187 5 12.114 5 10C5 9.042 5.385 8.119 6.108 7.316C6.391 7.002 6.465 6.56 6.315 6.176Z" fill="#3C0753"/>
</g>
<defs>
<clipPath id="clip0_315_21">
<rect width="24" height="24" fill="white"/>
</clipPath>
</defs>
</svg>
